<?xml version="1.0" standalone="no"?><!DOCTYPE svg PUBLIC "-//W3C//DTD SVG 1.1//EN" "http://www.w3.org/Graphics/SVG/1.1/DTD/svg11.dtd"><svg t="1608771333001" class="icon" viewBox="0 0 1024 1024" version="1.1" xmlns="http://www.w3.org/2000/svg" p-id="6392" xmlns:xlink="http://www.w3.org/1999/xlink" width="200" height="200"><defs><style type="text/css"></style></defs><path d="M901.797398 304.354928H482.013848a119.944609 119.944609 0 0 0-119.944609-119.944608H122.202602A119.944609 119.944609 0 0 0 2.257993 304.354928v599.700463c0 10.07065 1.625755 19.734862 3.974069 29.105535 0.587078 2.348313 1.422536 4.583727 2.099934 6.93204 2.461213 7.609438 5.509504 14.880176 9.370672 21.721896 0.699978 1.354796 1.354796 2.687012 2.122514 3.974069a120.034928 120.034928 0 0 0 42.382536 41.592238 118.883352 118.883352 0 0 0 59.994884 16.618831h779.594796a119.967189 119.967189 0 0 0 119.967189-119.944609V424.322117a120.012348 120.012348 0 0 0-119.967189-119.967189z m-779.594796 0c-17.567189 0-34.14086 3.996648-49.201676 10.770629a119.809129 119.809129 0 0 1 109.1514-70.742933h119.944609c44.25667 0 82.507078 24.250849 103.303197 59.972304H122.202602z" fill="#203646" p-id="6393"></path></svg>