<?xml version="1.0" standalone="no"?><!DOCTYPE svg PUBLIC "-//W3C//DTD SVG 1.1//EN" "http://www.w3.org/Graphics/SVG/1.1/DTD/svg11.dtd"><svg t="1608771328615" class="icon" viewBox="0 0 1024 1024" version="1.1" xmlns="http://www.w3.org/2000/svg" p-id="6262" xmlns:xlink="http://www.w3.org/1999/xlink" width="200" height="200"><defs><style type="text/css"></style></defs><path d="M302.797605 485.218594h537.919985v-59.746308a119.560354 119.560354 0 0 0-119.537775-119.537774H482.126846a119.537774 119.537774 0 0 0-119.537774-119.537775H123.513523a119.560354 119.560354 0 0 0-119.537774 119.537775v597.666292c0 15.241405 3.16118 29.692515 8.354548 43.082371l170.929533-341.904227c39.130896-59.497929 53.536846-119.560354 119.537775-119.560354z m597.688872 59.768887H362.589072c-66.023508 0-80.452038 60.062425-119.537774 119.537774L63.722056 963.347111c0 66.023508 53.536846 59.768887 119.537774 59.768888h537.919985c66.000928 0 80.429458 12.75762 119.537775-59.768888l179.284081-298.821856a119.515195 119.515195 0 0 0-119.515194-119.537774z" fill="#203646" p-id="6263"></path></svg>