<?xml version="1.0" standalone="no"?><!DOCTYPE svg PUBLIC "-//W3C//DTD SVG 1.1//EN" "http://www.w3.org/Graphics/SVG/1.1/DTD/svg11.dtd"><svg t="1609071851752" class="icon" viewBox="0 0 1024 1024" version="1.1" xmlns="http://www.w3.org/2000/svg" p-id="5573" xmlns:xlink="http://www.w3.org/1999/xlink" width="200" height="200"><defs><style type="text/css"></style></defs><path d="M781.293 415.981h-42.339v-95.437c0-140.927-101.812-255.579-226.955-255.579S285.045 179.617 285.045 320.543v95.437h-42.339c-17.6 0-32 14.4-32 32v479.055c0 17.6 14.4 32 32 32h538.586c17.6 0 32-14.4 32-32V447.981c0.001-17.6-14.399-32-31.999-32z m-432.248-95.438c0-105.637 73.102-191.579 162.955-191.579 89.853 0 162.954 85.942 162.954 191.579v95.437H349.045v-95.437z" p-id="5574"></path></svg>