<?xml version="1.0" standalone="no"?><!DOCTYPE svg PUBLIC "-//W3C//DTD SVG 1.1//EN" "http://www.w3.org/Graphics/SVG/1.1/DTD/svg11.dtd"><svg t="1609071845904" class="icon" viewBox="0 0 1024 1024" version="1.1" xmlns="http://www.w3.org/2000/svg" p-id="5443" xmlns:xlink="http://www.w3.org/1999/xlink" width="200" height="200"><defs><style type="text/css"></style></defs><path d="M704.549 64.604c-118.265 0-214.479 112.705-214.479 251.239v111.041H136.972c-17.6 0-32 14.4-32 32v468.511c0 17.6 14.4 32 32 32h526.887c17.6 0 32-14.4 32-32V458.884c0-17.6-14.4-32-32-32h-109.79V315.843c0-50.854 16.407-98.574 46.198-134.366 28.379-34.096 65.413-52.873 104.281-52.873s75.902 18.777 104.281 52.873c29.791 35.792 46.198 83.512 46.198 134.366v145.799c0 17.673 14.327 32 32 32s32-14.327 32-32V315.843c0.001-138.534-96.214-251.239-214.478-251.239z" p-id="5444"></path></svg>